<svg
  width="94"
  height="94"
  viewBox="0 0 94 94"
  fill="none"
  xmlns="http://www.w3.org/2000/svg"
>
  <path
    d="M13.2422 65.5288L8.20757 59.3473H16.0284L24.5118 56.2782H30.8743L33.4846 52.6584L40.0103 46.7853V39.9331V37.4861L42.4575 33.4077H44.7415L55.0194 34.3865L60.7294 35.6916H64.9711L74.4334 37.4861H84.5482L85.8533 39.9331L78.3488 54.779L72.8019 67.0147L70.0285 69.625L63.8491 79.1328L50.7893 85.1186L39.0898 88.1115L36.6411 85.1186L23.0371 80.4932L20.5884 79.1328L17.0513 75.8679C15.7816 73.5098 13.2422 68.1408 13.2422 65.5288Z"
    fill="#D1D5DB"
  />
  <path
    d="M8.15322 52.813H8.92958L14.4622 50.2628L22.9456 47.1937H29.3081L31.9184 43.574L38.4441 37.7008V30.8487V28.4017L40.8913 24.3232H43.1753L53.4532 25.3021L59.1632 26.6072H63.4049L72.8672 28.4017H82.982L84.2871 30.8487L76.7826 45.6946L71.2357 57.9303L68.4623 60.5405L62.2829 70.0483L49.2231 76.0341L37.5236 79.027L35.0749 76.0341L21.4709 71.4087L19.0222 70.0483L16.1407 63.4006C14.871 61.0425 13.8032 57.9601 11.676 56.4443C9.60278 54.9671 8.25896 52.8985 8.15322 52.813H8.14648C8.14648 52.8093 8.14874 52.8094 8.15322 52.813Z"
    fill="#F3F4F6"
  />
  <path
    d="M40.7879 49.7033L35.3258 45.8321L39.8341 39.3237L42.8078 44.9904L43.481 49.0861L40.7879 49.7033Z"
    fill="#E1CBB4"
  />
  <path
    d="M23.7613 27.5862L35.3444 46.1841L38.4618 44.0029C38.4618 42.154 40.0756 40.4742 40.0756 39.8217C40.0756 39.1691 35.8339 31.3928 33.713 27.5862C31.3202 23.5075 26.4695 15.1872 26.2084 14.5346C25.9474 13.882 23.8157 9.91223 22.7824 8.0089L19.3565 5.88818L14.4622 9.9667L15.6041 13.0663C17.0724 15.1328 20.1069 19.3964 20.4984 19.9184C20.89 20.4405 22.1842 24.0513 22.7824 25.7915L23.7613 27.5862Z"
    fill="#FF7D13"
  />
  <path
    d="M44.4597 51.6203L40.6632 49.5656L42.7178 45.0098L44.4597 48.6724V50.191V51.6203Z"
    fill="#040404"
  />
</svg>
