<svg
  width="94"
  height="94"
  viewBox="0 0 94 94"
  fill="none"
  xmlns="http://www.w3.org/2000/svg"
>
  <g clip-path="url(#clip0_209_3756)">
    <path
      d="M43.1272 68.143C56.394 68.143 67.1489 57.3881 67.1489 44.1213C67.1489 30.8545 56.394 20.0996 43.1272 20.0996C29.8604 20.0996 19.1055 30.8545 19.1055 44.1213C19.1055 57.3881 29.8604 68.143 43.1272 68.143Z"
      fill="#C6E6FF"
    />
    <path
      d="M61.9554 61.7744L62.7356 62.8272L63.6286 63.7625L64.5639 64.6555L65.5744 65.478L66.27 66.6154L67.2664 67.4473L68.1077 68.439L69.0054 69.3696L69.9172 70.2908L70.7914 71.2496L71.7878 72.0815L72.7795 72.9275L73.7947 73.75L74.6266 74.7511"
      fill="#6B7280"
    />
    <path
      d="M62.9188 61.0103L61.6054 63.4369L63.2666 64.9319L64.662 66.6832L65.5922 67.6749L66.7882 68.4204H68.8149L69.0711 67.6749L69.9688 68.6055L70.8806 69.5267L71.7548 70.4855L72.7512 71.3174L73.7429 72.1634L74.7581 72.9859L75.59 73.987"
      fill="#6B7280"
    />
    <path
      d="M73.6161 77.5946L70.7538 74.9156L68.1688 71.87L65.001 69.1957L69.1417 65.478L72.0416 67.9925L74.8334 70.836L77.7145 73.7688L73.6161 77.5946Z"
      fill="#0A57C7"
    />
    <path
      d="M43.6207 16.4053L35.626 17.9516L28.8439 22.191L22.6493 27.1166L18.4287 33.3864L16.2855 40.709L16.3231 44.1259L17.4558 52.5718L21.5495 58.6912L26.4516 63.8471L28.0825 65.9151L39.5693 70.3049L42.3282 69.9947L43.6207 71.5598L53.4296 69.7174L60.8133 65.9527L66.3499 59.7581L69.2921 52.1018L70.1287 44.1259L68.1594 36.15L65.7342 28.0519L58.8205 23.1921L52.0854 18.055L43.616 16.41L43.6207 16.4053ZM52.6917 61.5253L43.6207 64.1056L35.6213 63.4335L29.2387 58.5032L25.1779 51.7587L23.8337 44.1212L25.3001 35.9808L30.3244 29.3914L36.1242 24.6162L43.6254 22.9383L51.5026 25.1097L58.374 29.3773L63.4406 35.915L63.5346 44.1212L62.604 50.2265L56.4517 58.8698L52.6964 61.5253H52.6917Z"
      fill="#0A57C7"
    />
    <path
      d="M71.9476 32.1502L67.9197 33.4051L64.1691 34.9091L61.2833 37.7432L59.9062 41.5361L58.7359 45.5405L58.5808 41.3904L56.9358 37.5364L53.9607 34.5754L49.961 33.5132L45.9613 32.7753L49.9657 31.6003L53.7962 30.2749L57.2789 27.7933L58.3129 23.6385L58.5526 19.5542L59.6336 23.6291L61.1235 27.4596L63.8025 30.7355L67.7787 32.2395L71.9476 32.1502Z"
      fill="#FEE028"
    />
  </g>
  <defs>
    <clipPath id="clip0_209_3756">
      <rect width="94" height="94" fill="white" />
    </clipPath>
  </defs>
</svg>
