<svg
  width="94"
  height="94"
  viewBox="0 0 94 94"
  fill="none"
  xmlns="http://www.w3.org/2000/svg"
>
  <g clip-path="url(#clip0_209_3674)">
    <path
      d="M59.7246 26.2464L59.8062 17.3674L53.2444 17.9555L46.6187 18.002L39.9812 16.5581L33.0061 17.0588L33.536 26.2755L25.6933 25.4138L18.0428 26.5201L10.3807 25.3847L3.06206 26.4793L2.47983 33.3263L2.78259 40.5285L3.01548 47.7365L2.45654 54.9503L2.67779 62.1583L3.22509 69.3663L2.52641 76.7665L9.52481 76.8189L16.3311 77.2206L23.1373 76.8014L29.9436 76.4171L36.7499 76.5743L43.5561 77.4127L50.3624 76.6617L57.1687 77.2439L63.9749 77.4418L70.787 75.765L77.5933 77.0168L84.4053 77.3778L90.6934 76.0852L91.264 69.3721L91.427 62.17L91.1126 54.962L90.5013 47.7481L90.6236 40.5401L91.5435 33.3263L91.3164 26.0019L83.3806 25.606L75.5496 26.6074L67.7128 26.0426L59.7246 26.2464Z"
      fill="#529CF5"
    />
    <path
      d="M18.6075 26.4332L13.8565 26.2643L9.35586 25.7229L4.5874 26.4565L4.72132 22.3983L9.35586 22.5381L13.8565 22.3052L18.5202 22.3634L18.6075 26.4332Z"
      fill="#213263"
    />
    <path
      d="M87.9163 32.8488L78.9674 33.0468V30.0366L87.9221 30.1938L87.9163 32.8488Z"
      fill="#213263"
    />
    <path
      d="M76.9993 31.6381L76.4636 33.1286L74.9731 33.5943L73.5816 33.0238L73.0925 31.6381L73.4826 30.1475L74.9731 29.5479L76.3064 30.2989L76.9993 31.6381Z"
      fill="#C3F1BA"
    />
    <path
      d="M68.6618 51.4104L68.7375 55.7364L67.4391 59.8877L65.0461 63.4858L62.4494 66.8919L59.2995 69.8613L55.253 71.4042L51.1949 72.656L46.9679 72.7608L42.6419 73.1567L38.5023 71.8467L35.0846 69.1917L31.2826 67.0898L28.7325 63.5965L26.6015 59.8469L25.8097 55.6199L24.8898 51.4104L25.9087 47.2184L26.6248 42.9797L28.5986 39.137L31.4573 35.8998L34.712 33.0702L38.5314 31.0324L42.7118 30.0076L46.9679 29.2915L51.1891 30.194L55.1773 31.5797L59.2762 32.9828L62.2281 36.1502L65.3838 39.1021L66.9675 43.1253L68.4464 47.1368L68.6618 51.4104Z"
      fill="black"
    />
    <path
      d="M47.1309 69.1163C56.9094 69.1163 64.8365 61.1892 64.8365 51.4107C64.8365 41.6321 56.9094 33.7051 47.1309 33.7051C37.3524 33.7051 29.4253 41.6321 29.4253 51.4107C29.4253 61.1892 37.3524 69.1163 47.1309 69.1163Z"
      fill="#C3F1BA"
    />
    <path
      d="M47.1309 69.1163C56.9094 69.1163 64.8365 61.1892 64.8365 51.4107C64.8365 41.6321 56.9094 33.7051 47.1309 33.7051C37.3524 33.7051 29.4253 41.6321 29.4253 51.4107C29.4253 61.1892 37.3524 69.1163 47.1309 69.1163Z"
      fill="#213263"
    />
  </g>
  <defs>
    <clipPath id="clip0_209_3674">
      <rect width="94" height="94" fill="white" />
    </clipPath>
  </defs>
</svg>
