<svg
  width="94"
  height="94"
  viewBox="0 0 94 94"
  fill="none"
  xmlns="http://www.w3.org/2000/svg"
>
  <g clip-path="url(#clip0_209_3672)">
    <path
      d="M73.1319 81.987L71.2942 82.5416L66.4414 81.0307L62.8013 82.4194L59.3321 83.1178L56.1362 81.0307L52.184 82.128L50.0643 82.7202L47.9399 81.8225L45.8155 81.9494L41.5714 82.4617L37.0912 82.7202L35.3302 81.8225L30.9602 83.1178L28.8297 82.1233L24.5762 82.0904L21.4817 81.8225L19.9561 80.1916L20.0407 78.3936L19.3508 75.9433L20.7645 71.7691L20.2334 67.6896L20.7645 65.899L19.8997 61.4386L20.3885 57.2697L20.7645 55.1373L19.4812 52.5936L20.1582 48.9319L20.5295 44.763L19.9514 42.4189L20.3697 38.512L19.4812 35.7661L20.2381 32.7289L20.6611 30.1742L20.1347 28.0874L21.1118 26.8306L19.9514 22.265L20.4637 19.7402L22.0665 17.4983L26.3296 17.3761L30.951 17.973L30.9353 17.9777L33.0597 17.3385L35.1794 17.8367L37.3038 17.973L39.4282 17.8884L41.5526 17.5265L43.677 17.6628L45.8014 17.4983L47.9211 17.8555L50.0455 17.5641L52.1652 17.4654L54.2896 18.0435L56.414 17.3949L60.1802 18.0952L63.9631 17.3385L64.8762 18.0952L68.0069 18.6125L71.2895 17.4889L73.3481 17.6628L74.1035 19.062L74.9526 22.0691L73.7617 23.8303V28.0686L73.3481 30.1554L73.6395 34.3196L73.2917 36.4064L73.6066 40.5753L73.1648 42.6574L73.4186 44.7395L73.3904 46.8263L73.5925 48.9084L73.2259 50.9952L73.1366 53.0773L73.6019 55.1641L73.5267 57.2462L73.6865 59.333L73.334 61.4151L73.2635 63.4972L73.6348 65.584L73.5643 67.6708L73.7429 69.7529L72.4419 71.9647L73.7993 76.0086L73.5596 78.0954L73.5314 80.1963L73.1319 81.987Z"
      fill="#AB6900"
    />
    <path
      d="M66.6891 74.848L64.5949 74.5685L62.6259 74.8939L60.661 74.556L59.7143 74.5184L56.6007 75.4023L54.7623 74.5184L51.7156 74.8939L50.8284 74.7521L48.8704 73.8992L46.8987 74.6644L46.1863 74.8939L42.9648 74.6853L39.8518 74.8939L39.0309 74.5685L37.066 74.8188L35.8793 74.8939H32.7657L31.1631 74.5226L28.3638 74.8939L27.3252 74.6186L27.2167 72.7246L26.6459 71.9667L27.4253 68.724L27.2376 66.7258L26.6459 66.169L27.0206 62.7293L27.4253 61.5523L27.3961 58.7287L27.1041 56.7096L27.7196 55.1104L27.2334 52.7298L26.6459 50.7149L27.2835 48.7292L27.1166 46.7309L26.6459 43.354L27.2 42.7345L27.3961 41.8509L27.1833 38.7338L27.4044 36.7314L26.6459 35.0332L27.2835 33.9596L27.1583 30.7326L27.1875 28.7302L28.1491 26.7194L27.3669 24.863L29.1899 24.667L30.7258 24.5293L33.1196 24.6211L34.6446 25.4778L37.0535 24.5293L39.0184 24.5502L40.9874 24.6086L42.9523 24.692L44.9171 24.8755L46.882 24.5502L48.851 24.5335L50.8159 24.9089L52.7849 24.6962L54.7497 24.9256L56.7188 24.546L58.6836 24.7546H60.6527L61.8079 25.4778L64.0625 24.7546L66.4429 24.838L66.4847 26.7194L66.3762 28.7177L66.5639 30.7201L66.7558 32.7308L66.3595 33.9596L66.7516 36.7148L66.6599 38.7172L67.1761 41.8509L66.3595 42.7136L66.5264 44.716L66.3595 45.9844L66.4596 48.7125L66.5139 50.7149L66.5639 52.7131L66.7558 54.7113L66.3595 56.7096V57.511L67.4803 60.7269L66.3595 62.7293L66.4137 64.7108L66.7183 66.7132L67.1761 69.3362L66.4555 70.7139L66.3595 71.9667L66.6891 74.848Z"
      fill="#F7F7FA"
    />
    <path
      d="M58.1953 25.0306H53.0389H49.5942L46.0879 25.6753H41.4163H37.3931V23.4952L36.5471 20.929L36.1664 18.203L35.546 15.6133L38.4412 15.524L41.4163 15.6368L44.3914 15.5851L47.3712 15.4112L50.3463 15.4253L53.3214 15.3125L56.3012 15.7402L59.2105 15.6086L58.7593 18.2406L58.1953 20.9243L57.8157 22.9638L58.1953 25.0306Z"
      fill="#213263"
    />
    <path
      d="M29.5911 30.202L31.833 31.8282L34.0655 32.3546L36.2886 30.5357L38.5211 30.1973L40.7536 30.0469L42.9861 30.1362L45.2327 31.8564L47.4558 30.5451L49.6977 31.7013L51.9302 31.7906L54.158 30.0657L56.3999 31.236L58.6324 30.249"
      stroke="#213263"
      stroke-width="1.41"
      stroke-miterlimit="10"
    />
    <path
      d="M29.5958 38.5825L31.8236 38.8504L34.0702 39.3674L36.2839 39.4097L38.3707 37.6754L40.5656 37.4263L42.7605 37.2148L45.0729 38.653L47.1738 37.0503L49.4439 37.8728"
      stroke="#213263"
      stroke-width="1.41"
      stroke-miterlimit="10"
    />
    <path
      d="M29.5441 46.1681L31.9035 46.0036L34.2817 46.201L36.627 45.7827L38.9864 45.6182L41.3787 46.06"
      stroke="#213263"
      stroke-width="1.41"
      stroke-miterlimit="10"
    />
  </g>
  <defs>
    <clipPath id="clip0_209_3672">
      <rect width="94" height="94" fill="white" />
    </clipPath>
  </defs>
</svg>
