<svg
  width="140"
  height="140"
  viewBox="0 0 140 140"
  fill="none"
  xmlns="http://www.w3.org/2000/svg"
>
  <path
    d="M24.0931 39.3721L114.762 41.19L115.344 56.5614L114.762 69.2707V84.5472V94.1497L115.971 105.062V119.029L114.762 123.613H106.15L91.0918 126.449L66.431 124.921L48.3173 123.613L22.5654 124.921L19.1991 123.613V115.973L17.9824 111.172L17.9824 87.5362L17.9824 81.0555V58.7953L19.1991 51.3752V41.19L24.0931 39.3721Z"
    fill="#EFF8FF"
  />
  <path
    d="M19.1632 53.2253L18.8792 48.7504L115.418 46.3765V56.537L111.957 57.9995L106.152 56.537H95.9923H83.7672C82.5949 56.537 80.083 57.3837 79.748 57.3837H76.4545L55.0746 54.9975H52.1161L45.9198 55.7673L35.816 52.6883L25.154 54.5357L19.1632 53.2253Z"
    fill="#C6E6FF"
  />
  <path
    d="M19.1632 53.2253L18.8792 48.7504L115.418 46.3765V56.537L111.957 57.9995L106.152 56.537H95.9922H83.7672C82.5949 56.537 80.0829 57.3837 79.748 57.3837H76.4545L55.0746 54.9975H52.1161L45.9198 55.7673L35.816 52.6883L25.154 54.5357L19.1632 53.2253Z"
    fill="#C6E6FF"
  />
  <path
    d="M4.05278 46.0162L3.91405 43.1242L5.53011 41.7388H33.9269L67.6336 44.0474L121.541 45.3172L128.006 44.0474L131.238 43.1242H134.585L136.086 44.0474V48.0876L134.585 48.8957H129.622L127.398 50.2809H121.541L114.962 48.8957L107.796 50.2809L95.1069 49.5883L92.1056 50.2809L85.8722 49.5883L78.5998 50.2809L59.6687 49.5883H53.6661C50.357 49.2805 45.3142 50.05 44.7601 49.5883C44.206 49.1265 38.5658 48.898 36.7573 49.0904H28.5111L22.7298 49.5883L14.3031 48.0876H8.76228L4.83753 47.1642L4.05278 46.0162Z"
    fill="white"
  />
  <path
    d="M22.6526 12.8399L23.7701 16.0327H37.0208L56.817 17.1502H102.157L114.13 16.0327L117.839 17.8144L119.608 16.0327L114.13 12.8399L111.416 11.8823L106.467 12.8399L102.157 13.7978H95.1323C93.9616 13.4785 91.4604 12.8399 90.8218 12.8399C90.1832 12.8399 86.314 12.2015 84.5579 11.8823L74.5002 12.8399L65.1445 12.4269H60.7589L52.0953 11.7223H43.2165L39.4634 12.4269H33.5578H30.5232C28.9799 12.4269 25.884 11.4619 24.8876 11.7223C23.7701 12.0143 23.1847 12.0948 22.6526 12.8399Z"
    fill="white"
  />
  <path
    d="M24.3113 14.0566L6.41587 39.154L5.40549 42.9725L12.963 46.1376H18.2007H26.2754L36.2842 45.508C36.7934 45.9445 41.2994 45.7717 41.8943 46.1376C43.3137 47.0105 46.2077 46.7195 48.7538 46.1376H58.995L68.4579 47.0105H77.6504H87.1635L92.6195 46.1376L99.3848 47.0105H111.17L118.153 46.1376L121.645 47.0105H126.883L132.775 44.8281L118.153 17.3303L112.479 14.0566L103.531 15.8026H88.9094L83.89 14.0566L69.4863 15.8026H60.9751L54.2098 14.0566H41.1155H35.6596H29.2268H24.3113Z"
    fill="#5A7F9A"
  />
  <path
    d="M38.5558 104.278L39.7546 111.512L46.4702 113.493H64.1511L88.3636 114.977L99.2415 112.58V105.868C99.2415 105.289 98.0557 102.047 97.4629 100.497L98.5186 92.4423V89.4654L97.4629 76.2288L96.4532 64.7657L97.4629 60.301H90.2069L79.5968 61.0538L69.1921 58.7266L59.2666 60.301L55.5064 59.3819H38.5558V66.7118L37.0287 78.1649L38.5558 89.4654V94.8102V104.278Z"
    fill="#6B7280"
  />
  <path
    d="M41.8146 105.748L42.634 109.125H51.2693L56.7802 110.591L63.0252 110.177L86.5253 111.5H90.4558L95.8157 110.591C95.8157 110.012 95.3528 104.564 94.76 103.015V96.2805L95.8157 91.9833V84.7057L94.76 79.6352L93.7503 68.1714V64.4596L92.3242 63.7067L81.7141 64.4596L71.3093 62.1323L61.3838 63.7067L57.6236 62.7877L42.6341 62.1325L41.8146 68.182L40.2875 79.6352L41.8146 90.9357V96.2805V105.748Z"
    fill="#4B5563"
  />
  <path
    d="M66.4231 69.9306V62.0649H69.03L69.5833 66.778L69.7897 73.9064V78.6553V79.9002V82.805L71.032 86.6712V90.4751V92.9649V94.9014V98.7745L71.7273 102.094V105.691L72.3497 108.111L73.5459 111.506H69.9982L68.7275 103.126V98.3076V91.6038L67.5171 88.1258L66.4231 82.805V78.1961V69.9306Z"
    fill="#6B7280"
  />
  <path
    d="M16.1853 116.961L16.7848 112.714H21.3597C21.2304 113.547 20.9716 115.279 20.9716 115.538V119.225V121.941L20.3248 123.882V125.822L16.7848 125.369L16.1853 124.205L16.7848 123.106L16.1853 120.195V117.867V116.961Z"
    fill="#734825"
  />
  <path
    d="M52.1477 116.961L52.7472 112.714H57.3222C57.1928 113.547 56.9341 115.279 56.9341 115.538V119.225V121.941L56.2873 123.882V125.822L52.7472 125.369L52.1477 124.205L52.7472 123.106L52.1477 120.195V117.867V116.961Z"
    fill="#734825"
  />
  <path
    d="M12.3772 107.24V111.232L11.776 113.31H20.0048L27.9012 113.817L33.8027 112.847H40.3692H44.6083L52.2553 113.817H62.3659L65.8315 112.847L65.1384 110.352V108.688L62.3659 105.463L50.4444 106.47L46.4243 105.463H38.2456H33.0326L23.0381 107.24H16.8193H12.3772Z"
    fill="#946549"
  />
  <path
    d="M124.321 106.541V108.659L125.669 108.367L127.279 107.455L128.73 106.772L128.88 105.877L129.483 104.122L128.73 101.541L128.031 98.9604L125.558 99.3366L124.59 100.25C124.698 100.627 124.977 101.508 125.235 102.025C125.494 102.541 124.429 103.925 124.321 104.534L124.113 106.004L124.321 106.541Z"
    fill="#4B4036"
  />
  <path
    d="M119.644 119.231L121.364 120.79L124.189 120.951L125.372 119.231L126.447 117.887C126.196 117.331 125.558 115.327 125.558 114.768C125.558 114.209 125.343 113.352 125.235 112.994H123.246L121.902 114.768C121.543 115.109 120.762 115.833 120.504 116.005C120.246 116.177 119.823 116.65 119.644 116.865V118.478V119.231Z"
    fill="#4B4036"
  />
  <path
    d="M121.64 123.872V127.151H128.2V125.969C128.093 125.628 127.835 124.85 127.662 124.463C127.49 124.076 127.949 123.549 128.2 123.334L128.094 119.105L127.772 118.686H126.32L123.684 121.721L121.64 122.85V123.872Z"
    fill="#4B4036"
  />
  <path
    d="M124.92 111.509L126.078 113.966L126.615 116.386H126.938L128.071 116.272L129.114 111.509L128.684 109.896L124.92 110.542V111.509Z"
    fill="#4B4036"
  />
  <path
    d="M118.433 97.1577L120.242 96.7686L121.916 96.4379L122.966 97.3523L124.939 98.2123L125.398 98.7337L128.2 97.6636L128.083 96.4379L127.788 95.9538C127.537 94.2154 127.014 90.6633 126.928 90.3622C126.842 90.0611 125.924 87.5842 125.476 86.3833L122.949 86.6522L120.637 87.8349C120.619 88.3188 120.594 89.3404 120.637 89.5555C120.68 89.7705 120.225 91.0431 119.992 91.6526L119.639 94.2392L118.702 95.5237L118.433 97.1577Z"
    fill="#4B4036"
  />
  <path
    d="M120.101 102.037C120.187 102.553 120.352 102.825 120.423 102.897L121.926 104.844L122.373 105.253H123.832V104.241L124.563 102.897L124.026 100.37L122.735 98.9722L120.423 97.1978L119.025 98.0581L119.563 98.9722C119.706 99.7788 120.015 101.521 120.101 102.037Z"
    fill="#4B4036"
  />
  <path
    d="M118.185 110.679H119.708L121.357 113.661L121.76 114.027L124.464 111.186L124.656 110.679V108.014L122.908 106.108H122.441L121.357 104.59L120.786 104.905L119.327 107.507L118.185 109.22V110.679Z"
    fill="#4B4036"
  />
  <path
    d="M112.824 115.344L114.443 116.759L115.333 117.679H116.131L118.369 118.302L119.456 116.378C120.217 115.363 118.937 112.563 118.836 112.056C118.734 111.548 116.727 112.36 115.776 112.318L115.333 113.71L114.672 114.293L113.115 114.702L112.824 115.344Z"
    fill="#4B4036"
  />
  <path
    d="M108.79 110.099C109.582 110.627 110.497 112.661 111.166 111.881L111.977 112.673L112.789 113.465L114.967 113.267C115.482 112.567 116.543 111.097 116.67 110.812C116.828 110.455 117.026 108.792 117.105 108.515C117.169 108.293 118.848 105.809 119.679 104.595V103.288V100.555L117.343 98.1001H115.72L113.502 100.555L112.274 102.06L110.017 103.09L109.146 104.198C109.027 105.083 108.79 106.907 108.79 107.129C108.79 107.406 108.512 108.277 108.473 108.515C108.441 108.705 108.671 109.65 108.79 110.099Z"
    fill="#4B4036"
  />
  <path
    d="M111.977 95.4867H113.007L117.679 96.1204L118.036 94.0216L119.976 91.0912V88.9925L118.036 85.666L115.105 86.1015L111.977 87.0915C112.135 87.8968 112.452 89.5627 112.452 89.7845V92.0811L111.977 95.4867Z"
    fill="#4B4036"
  />
  <path
    d="M104.285 93.0316C104.285 93.2218 104.336 94.2122 104.851 94.2386L109.944 95.1597L110.66 95.0116C111.353 94.4824 111.539 92.6673 111.729 92.4772C111.919 92.2871 111.941 90.814 111.927 90.1013L111.729 87.6459L109.037 86.8145L107.017 87.6459L105.473 88.4774C105.156 89.1902 104.475 90.6951 104.285 91.0119C104.047 91.4079 104.285 92.7939 104.285 93.0316Z"
    fill="#4B4036"
  />
  <path
    d="M93.9133 88.4666L93.053 92.869C91.1973 93.465 88.6373 93.7572 88.6373 94.0153C88.6373 95.2774 87.3536 93.5863 87.3536 93.1447C87.3536 92.9297 86.5595 91.9817 86.9896 91.1214L90.4721 87.499L93.053 87.9291L93.9133 88.4666Z"
    fill="#4B4036"
  />
  <path
    d="M94.32 93.9823C94.32 95.0218 94.5048 96.3248 94.5048 96.5397L98.9674 97.6151L99.9008 98.1002L101.441 97.6151L103.591 94.6041C103.878 93.475 104.473 91.1092 104.559 90.679C104.667 90.1414 103.914 89.8188 103.591 89.2813C103.333 88.8513 102.05 88.2775 101.441 88.0444H97.9996L95.0962 89.2813L93.9133 92.6686L94.32 93.9823Z"
    fill="#4B4036"
  />
  <path
    d="M102.793 101.578C102.793 101.9 103.761 102.331 104.03 102.438H106.234C107.238 102.438 109.374 102.492 109.89 102.707C110.407 102.923 110.321 102.044 110.213 101.578C110.519 100.905 110.127 99.0833 110.213 98.7819C110.299 98.4804 111.701 97.4378 109.89 96.9542L108.836 95.7038L106.073 95.1797H104.729L103.31 95.3787L101.664 97.9217C101.897 98.1188 100.798 98.9565 101.142 99.1715C101.572 99.4404 102.793 101.255 102.793 101.578Z"
    fill="#4B4036"
  />
  <path
    d="M101.846 111.548L103.136 110.405L106.47 110.082L107.868 109.007L108.405 108.47L108.782 106.534C108.334 105.853 108.534 103.587 108.405 103.415C108.244 103.2 105.018 103.416 104.695 103.416C104.437 103.416 102.688 103.738 101.846 103.9L101.363 106.241L100.018 107.933L100.018 108.47C100.251 108.72 99.7165 109.351 100.018 109.652C100.319 109.953 101.541 111.297 101.846 111.548Z"
    fill="#4B4036"
  />
  <path
    d="M112.118 125.668L112.871 127.496H119.484H121.097V125.668C121.187 125.166 121.377 123.937 121.42 123.033C121.474 121.904 117.979 119.108 117.656 118.786C117.398 118.527 115.398 118.355 114.43 118.302L110.344 121.259L110.667 122.173L111.796 123.678L112.118 125.668Z"
    fill="#4B4036"
  />
  <path
    d="M106.252 121.205L107.665 122.461L109.117 121.601L111.107 119.45C111.913 119.002 113.612 118.074 113.956 117.945C114.3 117.816 113.813 117.246 113.526 116.977C113.113 114.692 110.391 111.956 109.7 111.956C109.294 111.956 108.443 109.508 107.072 110.683L103.225 111.306C102.365 111.951 101.257 113.572 101.085 113.744C100.913 113.916 99.9766 115.149 99.9229 115.579L100.661 116.241L101.614 117.421C102.224 118.192 103.658 118.613 103.83 118.871C104.002 119.129 105.714 120.632 106.252 121.205Z"
    fill="#4B4036"
  />
  <path
    d="M109.603 122.174C109.388 122.389 107.38 123.123 107.058 123.446L106.191 125.992V126.67L107.789 127.401L110.2 128.187L111.439 128.322L111.977 126.172L111.439 124.236C110.776 123.985 109.775 122.002 109.603 122.174Z"
    fill="#4B4036"
  />
  <path
    d="M82.5838 126.602L84.1432 127.892L86.4551 128.322L91.2942 127.892C91.5989 127.57 92.2836 126.86 92.5847 126.602C92.961 126.279 93.0148 125.634 93.0148 125.365V124.451L94.9504 122.193V119.074L93.8751 116.386H92.2083L89.6812 117.461C88.7313 118.106 86.7562 119.418 86.4551 119.504C86.154 119.59 85.2543 119.934 84.8421 120.096L83.014 122.731C82.8706 123.304 82.5838 124.516 82.5838 124.774V126.602Z"
    fill="#4B4036"
  />
  <path
    d="M87.5687 116.707H88.644L91.2249 116.33L92.5153 115.308V114.018L93.1068 110.469L93.9133 107.566L92.7962 104.852L92.0966 103.883L90.146 103.206C89.232 103.564 87.8425 103.942 87.5687 104.723C87.2744 105.563 85.4718 107.512 85.4718 108.05C85.4718 108.588 84.6114 110.254 84.6114 111.007C84.6114 111.76 84.5577 112.62 84.6114 113.051C84.6652 113.481 84.7728 114.018 85.0416 114.341C85.2567 114.599 85.633 115.452 85.7943 115.847L87.5687 116.707Z"
    fill="#4B4036"
  />
  <path
    d="M87.9622 103.206C87.4783 103.08 86.4459 102.797 86.1878 102.668L85.2738 100.033L86.1878 98.6354V96.5922C87.0302 96.2875 88.7902 95.6459 89.0913 95.5168C89.3924 95.3878 89.9337 94.4953 90.1667 94.0652L92.9277 93.7705L93.8488 94.6919L94.0113 96.3174L95.5014 97.3469C95.1608 98.2967 92.7368 100.936 92.6937 101.324C92.6507 101.711 92.2457 102.381 92.0485 102.668L87.9622 103.206Z"
    fill="#4B4036"
  />
  <path
    d="M93.623 104.478C93.795 104.606 94.2682 105.535 94.4834 105.983H95.236L95.7737 109.156H97.3867L98.8922 107.489L101.043 105.069L102.326 102.96C102.38 102.566 102.456 101.424 102.326 101.037C102.197 100.649 99.8741 98.9364 99.211 98.2733C98.2073 97.8789 96.4727 97.8535 96.2576 98.0255C96.0425 98.1976 95.8454 98.7426 95.7737 98.9936L94.0531 101.467L92.8703 103.51C93.0495 103.779 93.451 104.349 93.623 104.478Z"
    fill="#4B4036"
  />
  <path
    d="M93.7089 114.203L94.7842 115.369L95.9737 117.203H96.8582L98.0061 116.904H98.9206L99.8384 115.708L101.075 113.02L100.322 110.654L99.0172 109.727L95.6579 109.889L94.2491 110.268L93.7089 112.16V114.203Z"
    fill="#4B4036"
  />
  <path
    d="M93.9133 126.709L95.4725 128.322L96.9781 127.57C98.627 127.39 102 127.053 102.301 127.139C102.602 127.225 104.219 126.889 104.989 126.709L105.957 125.473L107.14 123.698L105.42 121.064C104.38 120.132 102.226 118.268 101.925 118.268C101.624 118.268 100.581 117.766 100.097 117.515L96.064 118.268V119.935V122.838L95.0962 124.666L93.9133 126.709Z"
    fill="#4B4036"
  />
  <path
    d="M111.194 101.225L113.618 100.321L115.977 97.2151V96.7665L115.382 96.6927L113.97 95.8595H112.261L111.386 95.1113L109.706 95.6276L110.02 96.1535L110.117 96.5949L111.194 97.5655L110.541 99.3511L111.194 101.225Z"
    fill="#4B4036"
  />
</svg>
