<svg
  width="140"
  height="140"
  viewBox="0 0 140 140"
  fill="none"
  xmlns="http://www.w3.org/2000/svg"
>
  <path
    d="M15.0373 77.1087C15.292 75.791 15.6485 72.3649 15.0373 69.2025L43.4631 64.5156H112.53L122.258 69.2025V71.635L119.456 75.2086C119.456 78.2495 120.791 82.2629 120.791 83.4793C120.791 84.9997 119.456 90.184 119.456 93.5289V102.043V107.821L122.258 120.67L119.456 126.066C109.309 128.194 88.1307 124.545 86.0932 124.545C84.0558 124.545 70.6426 126.978 64.1907 128.194H49.6739L33.1196 126.066L18.0934 128.194L15.0373 126.066V107.821V96.2657V86.5351V81.6697V77.1087Z"
    fill="#E1CBB4"
  />
  <path
    d="M8.18866 70.7646L13.1627 71.9525H21.121C25.487 71.2269 34.5175 69.7755 35.7112 69.7755H41.0168C42.7411 69.7755 46.5986 71.2269 48.3119 71.9525L63.5653 70.7646L69.8657 69.7755H76.995H88.2693L95.067 70.7646L110.32 69.7755L123.916 71.9525H128.227V68.3898L129.056 65.4199L128.227 63.4409L130.879 57.6997C129.387 56.4461 126.27 53.6616 125.74 52.5528C125.076 51.1667 121.926 49.9797 120.6 48.792C119.274 47.6042 115.958 46.218 115.294 44.4369C114.764 43.0119 113.305 42.1275 112.642 41.8634L110.32 40.2795L104.352 36.9142L101.699 35.3308L97.3882 28.6L93.7406 23.8489L90.4247 21.8696L86.4455 18.1081L81.4715 15.9306L80.311 13.9512V10.388L78.1556 8.60639L76.995 7.2207L73.679 13.9512L70.8605 15.9306L67.7103 18.1081C66.6602 18.834 64.3612 20.4045 63.5653 20.8796L58.5914 23.8489L54.9438 26.4226L50.3015 28.6C48.8645 29.2599 45.7917 30.6587 44.9959 30.9754C44.2001 31.2922 42.0115 32.691 41.0168 33.3508L32.7268 36.9142L29.7425 40.2795L23.1105 46.218L13.1627 52.5528H10.8415L9.01768 55.5221L10.8415 58.6899L9.01768 59.8771C8.74134 61.0648 8.35446 63.8362 9.01768 65.4199L8.18866 70.7646Z"
    fill="#EEDBCC"
  />
  <path
    d="M29.9083 44.2384L19.463 52.5529L16.3128 54.1368H24.4369H32.0636H39.3588H45.6591L59.2546 55.5225H66.5497L71.8552 56.7103L77.1608 55.5225H79.482H86.1139C87.9708 55.5225 91.3089 56.3144 92.7458 56.7103H97.0566L102.031 55.5225H122.258L120.268 52.5529L117.616 50.9695C116.289 49.8477 113.537 47.4458 113.139 46.8124C112.741 46.1789 110.431 44.8325 109.326 44.2384C107.115 43.1828 102.561 40.6359 102.031 38.8937C101.5 37.1515 98.4935 35.7922 97.0566 35.3304L95.896 32.1634L93.7406 28.6001L86.1139 23.8492L80.4768 21.0778L78.1556 17.1187H76.3318L74.1764 18.5044L71.8552 21.0778C69.2025 22.4635 63.698 25.3141 62.9021 25.6309C62.1063 25.9476 60.1388 27.7423 59.2546 28.6001C57.1545 29.8538 52.689 32.5592 51.6278 33.351C50.5667 34.1429 50.3015 35.0005 50.3015 35.3304C47.2066 36.5181 40.851 38.8937 40.1878 38.8937C39.5246 38.8937 37.8113 40.3455 37.0376 41.0714L33.39 42.8529L29.9083 44.2384Z"
    fill="#67A86E"
  />
  <path
    d="M47.9338 94.4205V105.75V108.364L50.7847 109.241L52.1047 108.364L57.123 109.241C59.8341 109.241 65.3054 108.364 65.9727 108.364H72.7503H78.4882H87.7654V104.878V99.6493C87.7654 98.6533 87.9739 97.5355 87.7654 96.166C87.5985 95.0705 88.1825 90.8127 88.4953 88.8208V87.9493L87.7654 81.7218V77.9869L86.097 77.3644H82.0305C80.6402 77.1569 77.7345 76.7419 77.234 76.7419C76.6084 76.7419 67.1197 75.7461 66.5984 75.7461H62.6361H59.0908C55.3718 76.2855 47.9338 77.4889 47.9338 77.9869V81.7218C47.9338 82.5933 47.2039 84.7099 47.2039 86.2039C47.2039 87.6978 47.9338 90.1878 47.9338 91.1838V94.4205Z"
    fill="#EEDBCC"
  />
  <path
    d="M51.3372 104.731V105.787L53.1925 106.161L57.7402 105.787H60.4927L62.8862 105.375H63.8341L64.8608 105.787H68.6905L70.4257 106.161L71.9815 105.787H74.3152C74.6503 105.787 76.6489 105.608 77.6063 106.161H79.6407L80.7968 105.787L81.8547 105.375L83.1264 106.161H84.7868V104.731L85.086 102.691C85.086 102.371 85.0261 101.632 84.7868 101.232C84.5474 100.831 84.687 100.017 84.7868 99.6598V95.9447L85.086 94.0157V92.4439V90.1577L85.5048 87.8L85.086 83.5914V81.6558V80.2457H84.0089H81.8547L78.444 79.912L74.9734 79.3696L67.4937 78.8267H63.4235H61.6053C59.3054 79.1884 54.6822 79.912 54.5889 79.912C54.4724 79.912 52.4677 80.2457 52.3512 80.2457C52.2579 80.2457 51.1157 80.7653 50.5563 81.0252L50.8032 83.5914C50.6563 84.4684 50.3625 86.3277 50.3625 86.7486C50.3625 87.2748 50.3185 88.6426 50.3625 89.0636C50.3978 89.4003 50.671 90.8875 50.8032 91.5889V95.2719V97.1663V97.798V102.691C50.9812 103.136 51.3372 104.167 51.3372 104.731Z"
    fill="#4B5563"
  />
  <path
    d="M67.5326 82.074L66.2227 78.5242V77.4614L70.0358 77.9879C70.2303 78.5146 70.6195 79.6132 70.6195 79.7938V81.5621V83.9497L70.0358 86.1898V88.2363L70.6195 93.1126L70.998 95.1443C70.8718 96.1476 70.6195 98.2144 70.6195 98.4552C70.6195 98.696 70.8718 100.587 70.998 101.503L69.5829 104.776L70.6195 107.526L67.5326 106.99L66.8273 105.517V103.574L67.5326 101.967V100.158V97.4793V96.1398V93.9295V92.2734V90.7815V88.2363L66.8273 86.4279L67.5326 83.9497V82.074Z"
    fill="#EEDBCC"
  />
  <path
    d="M53.5034 125.357L51.7015 129.637L85.4864 127.834L101.241 123.105L95.6021 119.473L87.3706 119.648L84.912 119.473L81.1204 119.648L73.3238 118.149L67.693 120.402L56.8819 123.105L53.5034 125.357Z"
    fill="#946549"
  />
  <path
    d="M64.9559 127.075L63.154 131.354L103.302 130.281L116.971 126.15L112.873 121.684L107.229 120.725L104.875 122.119L101.584 121.684H97.008L91.224 122.119L87.7778 121.684L84.8016 122.119L78.6924 121.684L76.1077 123.407L68.3344 124.822L64.9559 127.075Z"
    fill="#745442"
  />
  <path
    d="M80.8626 128.546L79.2501 130.564L83.1662 131.896L91.5662 130.564L96.2866 131.023L105.334 130.564L112.846 131.023L119.397 131.896L127.756 130.564L125.199 126.294L121.598 123.947L118.47 123.01L112.846 123.01L106.613 123.591L101.794 123.01L97.5776 123.591H92.095L86.4557 126.294H84.241L80.8626 128.546Z"
    fill="#94664B"
  />
  <path
    d="M90.5923 129.429L88.9798 131.448L92.8959 132.779L101.296 131.448L106.016 131.906L115.064 131.448L122.575 131.906L125.999 131.842L134.358 130.51L131.801 126.24L126.491 125.209L122.575 123.893L116.342 124.474L111.524 123.893L107.307 124.474H101.825L96.1855 127.177H93.9708L90.5923 129.429Z"
    fill="#7D553E"
  />
  <path
    d="M61.563 121.875L63.4725 123.309L67.8539 121.875L69.3 121.513L68.2877 119.561H66.1908H63.9039H62.5754L61.563 121.875Z"
    fill="#FF7D13"
  />
  <path
    d="M73.8929 119.133L74.5364 120.595H78.8651H80.152L80.5615 119.561L80.152 119.133C79.5476 118.899 78.2801 118.407 78.0462 118.314C77.8122 118.22 77.0517 117.69 76.7007 117.436L73.8929 119.133Z"
    fill="#FF7D13"
  />
  <path
    d="M85.4752 118.723L85.9431 120.186L89.4529 120.595L92.1437 120.186L92.4947 119.133L90.2718 118.314L87.464 117.436L85.4752 118.723Z"
    fill="#FF7D13"
  />
  <path
    d="M75.0043 125.45V126.796H77.0517L77.6952 126.328H78.8651L80.971 125.45L82.2579 124.924C81.9069 124.612 81.1581 123.918 80.971 123.637C80.7838 123.356 78.9431 123.52 78.0462 123.637L75.0043 125.45Z"
    fill="#FF7D13"
  />
  <path
    d="M90.9153 121.875L89.4529 123.309L94.3081 122.701V122.408L93.7231 120.946L90.9153 121.875Z"
    fill="#FF7D13"
  />
  <path
    d="M100.977 120.186L100.509 122.408H100.977L104.428 122.701L105.832 121.875L103.644 120.396L103.083 120.186H100.977Z"
    fill="#FF7D13"
  />
  <path
    d="M89.4529 125.45V126.796L91.8512 126.328L94.6006 125.45L93.7231 124.573H91.5003L89.4529 125.45Z"
    fill="#FF7D13"
  />
  <path
    d="M107.919 121.513L107.06 123.862L112.23 123.637L112.048 122.701L111.64 121.875L109.87 120.946L107.919 121.513Z"
    fill="#FF7D13"
  />
  <path
    d="M98.5791 125.62L97.5723 127.493L100.977 126.796H103.472V125.904L102.791 125.178C102.186 124.976 100.883 124.521 100.509 124.316C100.134 124.111 99.7952 124.624 99.169 124.559L98.5791 125.62Z"
    fill="#FF7D13"
  />
  <path
    d="M111.64 125.45L112.23 126.796L113.909 127.084L116.45 126.328L116.623 125.62L116.087 124.089L114.317 123.862L111.943 124.924L111.64 125.45Z"
    fill="#FF7D13"
  />
  <path
    d="M125.072 123.862L123.212 123L122.576 123.309L120.923 124.089L120.353 124.316L119.581 125.904V126.328H121.805H125.072L126.161 125.904L125.072 123.862Z"
    fill="#FF7D13"
  />
  <path
    d="M10.8039 109.573V111.691L9.45608 111.399L7.8466 110.487L6.39487 109.804L6.24572 108.909L5.64212 107.154L6.39487 104.573L7.09385 101.992L9.56717 102.368L10.535 103.282C10.4275 103.658 10.1479 104.54 9.88979 105.056C9.63172 105.572 10.6963 106.957 10.8039 107.566L11.0126 109.036L10.8039 109.573Z"
    fill="#4B4036"
  />
  <path
    d="M15.4816 121.51V122.262L14.9731 124.826L12.8628 125.008L10.9365 123.983L9.7536 122.262L8.67826 120.918C8.92916 120.363 9.56717 118.359 9.56717 117.8C9.56717 117.241 9.78225 116.384 9.88979 116.025H11.8792L13.2234 117.8C13.5819 118.14 14.3633 118.864 14.6214 119.036C14.8795 119.208 15.3024 119.682 15.4816 119.897V121.51Z"
    fill="#4B4036"
  />
  <path
    d="M13.4848 126.903V130.183H6.92511V129C7.03264 128.66 7.29073 127.882 7.46278 127.495C7.63484 127.108 7.17602 126.581 6.92511 126.366L7.03106 122.137L7.35315 121.717H8.80488L11.4416 124.753L13.4848 125.882V126.903Z"
    fill="#4B4036"
  />
  <path
    d="M10.205 114.541L9.04755 116.998L8.50987 119.418H8.18726L7.05405 119.304L6.01103 114.541L6.43391 110.494L8.72579 111.007L10.205 112.61V114.541Z"
    fill="#4B4036"
  />
  <path
    d="M16.6924 100.189L14.8829 99.8004L13.6633 100.189L12.8139 101.039L10.8416 101.899L10.3818 102.42L6.92511 100.695L7.04185 99.4696L7.337 98.9856C7.58791 97.2472 8.11125 93.6951 8.19728 93.394C8.28331 93.0929 9.20095 90.6159 9.64901 89.415L12.1761 89.684L14.4881 90.8667C14.506 91.3506 14.5311 92.3721 14.4881 92.5872C14.4451 92.8023 14.9003 94.0749 15.1333 94.6843L15.4861 97.271L16.4238 98.5554L16.6924 100.189Z"
    fill="#4B4036"
  />
  <path
    d="M15.0246 105.069C14.9386 105.584 14.7737 105.857 14.702 105.929L13.1996 107.876L12.7521 108.285H11.2928V107.273L10.5619 105.929L11.0995 103.402L12.39 102.004L14.702 100.229L16.0999 101.09L15.5622 102.004C15.4188 102.81 15.1106 104.553 15.0246 105.069Z"
    fill="#4B4036"
  />
  <path
    d="M16.9404 113.711H15.4177L13.7682 116.693L13.3653 117.059L10.6608 114.218L10.469 113.711V111.046L12.2174 109.14H12.6843L13.7682 107.622L14.3392 107.937L15.7984 110.539L16.9404 112.252V113.711Z"
    fill="#4B4036"
  />
  <path
    d="M22.3018 118.376L20.682 119.791L19.7918 120.711H18.9941L16.7566 121.333L15.6697 119.41C14.9082 118.395 16.1881 115.595 16.2896 115.087C16.3912 114.58 18.3979 115.392 19.3496 115.349L19.7918 116.741L20.4534 117.325L22.0099 117.734L22.3018 118.376Z"
    fill="#4B4036"
  />
  <path
    d="M26.3356 113.131C25.5436 113.659 24.6281 115.692 23.9596 114.913L23.1479 115.705L22.3361 116.497L20.1581 116.299C19.6433 115.599 18.5821 114.129 18.4554 113.843C18.297 113.487 18.099 111.824 18.0198 111.547C17.9564 111.325 16.2774 108.841 15.4458 107.626V106.32V103.587L17.7822 101.132H19.4057L21.6233 103.587L22.8509 105.092L25.1081 106.121L25.9792 107.23C26.098 108.115 26.3356 109.939 26.3356 110.16C26.3356 110.438 26.6128 111.309 26.6524 111.547C26.6841 111.737 26.4544 112.682 26.3356 113.131Z"
    fill="#4B4036"
  />
  <path
    d="M23.1482 98.5184H22.1185L17.4458 99.1521L17.0894 97.0533L15.1491 94.123V92.0242L17.0894 88.6978L20.0198 89.1332L23.1482 90.1233C22.9898 90.9285 22.6729 92.5945 22.6729 92.8162V95.1128L23.1482 98.5184Z"
    fill="#4B4036"
  />
  <path
    d="M30.8407 96.0634C30.8407 96.2535 30.7895 97.2439 30.2746 97.2703L25.1815 98.1914L24.4652 98.0433C23.7727 97.5141 23.586 95.699 23.396 95.509C23.2059 95.3189 23.1848 93.8458 23.198 93.133L23.396 90.6777L26.0887 89.8462L28.1083 90.6777L29.6527 91.5091C29.9695 92.222 30.6506 93.7269 30.8407 94.0437C31.0783 94.4397 30.8406 95.8256 30.8407 96.0634Z"
    fill="#4B4036"
  />
  <path
    d="M41.212 91.4984L42.0723 95.9007C43.928 96.4967 46.488 96.789 46.488 97.047C46.488 98.3092 47.7716 96.6181 47.7716 96.1765C47.7716 95.9614 48.5658 95.0134 48.1357 94.1531L44.6531 90.5308L42.0723 90.9608L41.212 91.4984Z"
    fill="#4B4036"
  />
  <path
    d="M40.8053 97.0141C40.8053 98.0536 40.6205 99.3565 40.6205 99.5715L36.1578 100.647L35.2245 101.132L33.6845 100.647L31.5338 97.6358C31.2471 96.5067 30.652 94.1409 30.566 93.7108C30.4585 93.1731 31.2112 92.8505 31.5338 92.313C31.7919 91.883 33.0752 91.3093 33.6845 91.0762H37.1257L40.0291 92.313L41.212 95.7004L40.8053 97.0141Z"
    fill="#4B4036"
  />
  <path
    d="M32.3322 104.609C32.3323 104.932 31.3643 105.362 31.0955 105.47H28.891C27.8874 105.47 25.751 105.524 25.2348 105.739C24.7187 105.955 24.8047 105.076 24.9122 104.609C24.6062 103.937 24.9983 102.115 24.9122 101.814C24.8262 101.512 23.4246 100.47 25.2348 99.986L26.289 98.7356L29.0523 98.2114H30.3965L31.8156 98.4105L33.4613 100.953C33.2283 101.151 34.327 101.988 33.983 102.203C33.5529 102.472 32.3321 104.287 32.3322 104.609Z"
    fill="#4B4036"
  />
  <path
    d="M33.2796 114.58L31.9892 113.437L28.6556 113.114L27.2576 112.039L26.7199 111.501L26.3436 109.566C26.7916 108.885 26.5909 106.619 26.7199 106.447C26.8812 106.232 30.1073 106.447 30.4299 106.447C30.688 106.447 32.4373 106.77 33.2796 106.931L33.7618 109.273L35.1077 110.965L35.1077 111.501C34.8747 111.752 35.4088 112.383 35.1077 112.684C34.8066 112.985 33.5843 114.329 33.2796 114.58Z"
    fill="#4B4036"
  />
  <path
    d="M23.0071 128.699L22.2543 130.528H15.6409H14.0279V128.699C13.9383 128.198 13.7483 126.968 13.7053 126.065C13.6515 124.936 17.1464 122.14 17.469 121.817C17.7271 121.559 19.7273 121.387 20.6951 121.333L24.7814 124.291L24.4587 125.205L23.3297 126.71L23.0071 128.699Z"
    fill="#4B4036"
  />
  <path
    d="M28.8736 124.237L27.4599 125.493L26.0081 124.633L24.0187 122.482C23.2121 122.034 21.5131 121.106 21.169 120.977C20.8248 120.848 21.3123 120.278 21.5991 120.009C22.0118 117.724 24.7344 114.988 25.4253 114.988C25.831 114.988 26.6826 112.539 28.0531 113.715L31.9001 114.338C32.7604 114.983 33.8682 116.604 34.0403 116.776C34.2124 116.948 35.1486 118.181 35.2024 118.611L34.4638 119.273L33.5109 120.453C32.9016 121.223 31.4669 121.645 31.2948 121.903C31.1228 122.161 29.4113 123.663 28.8736 124.237Z"
    fill="#4B4036"
  />
  <path
    d="M25.5227 125.206C25.7377 125.421 27.7449 126.155 28.0675 126.478L28.9345 129.024V129.701L27.3361 130.433L24.9249 131.219L23.6859 131.354L23.1482 129.203L23.6859 127.268C24.349 127.017 25.3506 125.034 25.5227 125.206Z"
    fill="#4B4036"
  />
  <path
    d="M52.5414 129.633L50.9821 130.924L48.6701 131.354L43.831 130.924C43.5264 130.601 42.8417 129.891 42.5406 129.633C42.1642 129.311 42.1105 128.666 42.1105 128.397V127.483L40.1748 125.224V122.106L41.2502 119.417H42.917L45.4441 120.493C46.394 121.138 48.369 122.45 48.6701 122.536C48.9712 122.622 49.871 122.966 50.2832 123.128L52.1113 125.762C52.2547 126.336 52.5414 127.547 52.5414 127.805V129.633Z"
    fill="#4B4036"
  />
  <path
    d="M47.5566 119.738H46.4812L43.9004 119.362L42.6099 118.34V117.05L42.0185 113.501L41.212 110.598L42.3291 107.884L43.0286 106.915L44.9792 106.237C45.8933 106.596 47.2827 106.973 47.5566 107.755C47.8509 108.594 49.6535 110.544 49.6535 111.082C49.6535 111.619 50.5138 113.286 50.5138 114.039C50.5138 114.792 50.5676 115.652 50.5138 116.082C50.4601 116.513 50.3525 117.05 50.0836 117.373C49.8686 117.631 49.4922 118.484 49.3309 118.878L47.5566 119.738Z"
    fill="#4B4036"
  />
  <path
    d="M47.1631 106.237C47.647 106.112 48.6794 105.828 48.9375 105.699L49.8515 103.065L48.9375 101.667V99.6239C48.0951 99.3192 46.3351 98.6776 46.034 98.5486C45.7329 98.4195 45.1916 97.5271 44.9586 97.097L42.1976 96.8022L41.2765 97.7237L41.1139 99.3491L39.6239 100.379C39.9644 101.328 42.3885 103.968 42.4315 104.355C42.4746 104.742 42.8796 105.413 43.0768 105.699L47.1631 106.237Z"
    fill="#4B4036"
  />
  <path
    d="M41.9325 108.447C41.7605 108.576 41.2873 109.505 41.0721 109.953H40.3195L39.7818 113.125L37.7385 112.187L36.233 110.521L34.0823 108.101L32.7988 105.992C32.745 105.598 32.6697 104.455 32.7988 104.068C32.9278 103.681 35.2511 101.968 35.9143 101.305C36.918 100.911 38.6526 100.885 38.8677 101.057C39.0827 101.229 39.2799 101.774 39.3516 102.025L41.0721 104.499L42.255 106.542C42.0758 106.811 42.1045 108.318 41.9325 108.447Z"
    fill="#4B4036"
  />
  <path
    d="M41.9515 117.751L40.8762 118.917L39.9428 121.155L38.2672 120.235L37.1192 119.936H36.2047L35.287 118.74L34.0503 116.052L34.803 113.686L36.1081 112.759L39.4674 112.921L40.8762 113.3L41.9515 115.708V117.751Z"
    fill="#4B4036"
  />
  <path
    d="M41.2119 129.741L39.6527 131.354L38.1472 130.601C36.4983 130.422 33.1253 130.085 32.8242 130.171C32.5231 130.257 30.9064 129.92 30.1358 129.741L29.168 128.504L27.9851 126.73L29.7056 124.095C30.7451 123.163 32.8994 121.299 33.2005 121.299C33.5016 121.299 34.5447 120.798 35.0286 120.547L39.0612 121.299V122.966V125.87L40.0291 127.698L41.2119 129.741Z"
    fill="#4B4036"
  />
  <path
    d="M23.9308 104.257L21.5074 103.352L19.1486 100.247V99.7983L19.7431 99.7244L21.1552 98.8912H22.8639L23.7395 98.1431L25.4189 98.6593L25.1051 99.1852L25.0081 99.6266L23.9308 100.597L24.5841 102.383L23.9308 104.257Z"
    fill="#4B4036"
  />
  <path
    d="M58.0239 120.438L57.5525 119.77C57.4608 119.587 57.254 119.181 57.1597 119.024C57.0654 118.867 56.7014 118.304 56.5312 118.042L56.0598 117.452V116.628C56.0598 116.314 55.8765 115.685 55.7849 115.41H56.924V116.981L57.1597 117.256C57.2906 117.44 57.5525 117.854 57.5525 118.042C57.5525 118.23 58.1177 118.521 58.2748 118.77L58.4788 119.257V119.024V117.779V116.807L58.7277 116.444L59.2481 116.309L59.3612 116.981L59.2481 117.452V118.617V119.024L59.3612 119.296L59.2481 119.635L59.3612 119.884V119.997L58.0239 120.438Z"
    fill="#67A86E"
  />
  <path
    d="M58.1256 119.024V120.431H59.0945L60.3271 119.997V119.884L60.214 119.635L60.3271 119.295L60.214 119.024V118.617V117.452L60.3271 116.981L60.214 116.309L59.6936 116.444L59.4447 116.806V117.779V119.024V119.495H58.9898V119.024C58.8326 118.775 58.5184 118.23 58.5184 118.042C58.5184 117.854 58.2565 117.439 58.1256 117.256L57.8899 116.981L57.0257 116.628V117.452L57.4971 118.042C57.6673 118.304 58.0313 118.867 58.1256 119.024Z"
    fill="#67A86E"
  />
  <path
    d="M70.3915 117.966L70.2842 118.995L70.7561 119.338L71.8285 119.552L72.1288 119.338L72.3433 118.78C72.379 118.709 72.4977 118.54 72.6864 118.437C72.8752 118.334 72.7651 117.508 72.6864 117.107V116.207C72.6864 116.104 72.8294 115.735 72.9009 115.563L73.9948 114.598H72.9009L72.0001 115.328V115.864V116.636C72.0001 116.739 71.7785 117.151 71.5497 117.708C71.4639 117.551 71.2666 117.237 71.1637 117.237C71.0607 117.237 71.0064 116.908 70.992 116.743C70.992 116.5 70.7561 116.722 70.7561 116.636C70.7561 116.55 71.2208 116.064 71.0993 115.885L70.7561 115.563L69.2976 115.048H68.9545V115.671C69.2619 115.814 69.881 116.121 69.8982 116.207C69.9154 116.293 70.0054 117.086 70.0483 117.472L70.3915 117.966Z"
    fill="#67A86E"
  />
  <path
    d="M82.3595 118.437L81.6946 117.837L81.5016 116.442C81.5659 116.171 81.0984 116.112 80.944 115.992C80.7895 115.873 81.0655 115.141 80.944 115.048V114.276L81.5016 113.633C81.5659 113.569 81.6946 113.479 81.6946 113.633C81.6946 113.787 81.7661 114.126 81.8019 114.276L81.6946 114.791L81.8019 115.22V115.477C81.8448 115.563 81.9391 115.761 81.9735 115.864C82.0164 115.992 82.1021 116.379 82.1236 116.636C82.1408 116.842 82.2022 117.136 82.2308 117.258C82.2737 117.315 82.3595 117.331 82.3595 116.936C82.3595 116.541 82.2737 116.057 82.2308 115.864V115.671C82.1951 115.513 82.1236 115.139 82.1236 114.898V113.633V113.204L82.3595 112.925L82.9172 112.668L83.3461 112.925V113.075C83.3461 113.204 83.3461 113.526 83.1317 113.633C82.9172 113.955 82.9172 114.126 82.9172 114.126V114.898V116.057C82.9653 116.144 82.9729 116.288 82.9656 116.413C83.0484 116.161 83.2203 115.812 83.3461 115.671C83.5177 115.477 83.9038 115.328 84.0325 115.328C84.1354 115.328 84.2756 115.556 84.3328 115.671C84.3756 115.771 84.4357 116.018 84.3328 116.207C84.2298 116.395 84.0897 116.643 84.0325 116.743C83.9967 116.993 83.9209 117.515 83.9038 117.601C83.8823 117.708 83.7751 117.687 83.9038 117.966C84.0067 118.189 84.0325 118.602 84.0325 118.78L82.3595 118.437Z"
    fill="#67A86E"
  />
  <path
    d="M69.9924 124.749L70.9885 125.318H71.771L72.9094 124.465L73.7275 123.824L74.0477 123.362L73.7275 122.508L72.9094 122.757V122.294V121.156C72.9094 120.843 72.1505 121.026 71.771 121.156L71.2019 121.797C71.3086 122.188 71.522 122.999 71.522 123.113V123.362H70.3126V122.508L69.9924 121.797L70.3126 120.765L69.281 120.196L68.5695 120.765C68.451 121.203 68.2138 122.123 68.2138 122.294C68.2138 122.508 68.4272 122.828 68.5695 122.97C68.6834 123.084 69.0913 123.587 69.281 123.824L69.9924 124.749Z"
    fill="#51A159"
  />
  <path
    d="M85.6087 121.797L85.9289 122.757L86.249 122.508V121.797H87.6719C87.6956 121.583 87.8071 121.156 88.0632 121.156C88.3193 121.156 88.6442 120.516 88.7746 120.196V119.769L86.8893 120.196V119.769C87.0672 119.603 87.3802 119.164 87.2095 118.737C87.0672 118.652 86.9367 118.559 86.8893 118.524L86.6759 117.563H86.249L85.6087 117.812V119.271V120.196V121.797Z"
    fill="#51A159"
  />
  <path
    d="M84.8617 125.318C85.004 125.318 85.419 125.603 85.6087 125.745H85.9289L86.249 125.033C86.4624 124.701 86.8893 123.995 86.8893 123.824C86.8893 123.653 86.6284 123.445 86.498 123.362L85.6087 122.97C85.3597 122.97 85.3865 124.101 85.3865 124.215C85.3865 124.329 85.0514 123.243 84.8617 123.646L84.2925 123.824C84.2925 123.824 83.9724 123.113 83.9724 122.757V122.294L83.3321 122.757L83.1898 123.362L83.6878 124.465C84.0198 124.749 84.7194 125.318 84.8617 125.318Z"
    fill="#51A159"
  />
  <path
    d="M92.7943 124.465C93.0908 124.749 93.7121 125.318 93.8259 125.318H95.1421V124.749C95.4148 124.441 96.0101 123.788 96.2093 123.646C96.4085 123.504 96.2923 122.994 96.2093 122.757L95.4267 123.824L94.3951 124.215L95.4267 122.97V122.294C95.4267 122.123 95.0947 121.464 94.9287 121.156H94.1816L94.3951 121.619L94.1816 122.508L93.5769 122.97V122.508L93.3635 121.619L92.6165 120.196L91.6916 121.156C91.7034 121.227 91.7841 121.419 92.0117 121.619C92.2394 121.818 92.5097 122.295 92.6165 122.508V123.362L92.7943 124.465Z"
    fill="#51A159"
  />
  <path
    d="M95.4267 119.769L96.2093 120.765H97.5966L98.059 120.445L97.9177 117.967L97.2969 117.346L96.8564 118.207V119.889L96.2093 119.609V118.524C96.1263 118.287 95.9603 117.762 95.9603 117.563C95.9603 117.364 95.7468 117.03 95.6401 116.887L94.9287 116.247V117.563V118.737L95.4267 119.769Z"
    fill="#51A159"
  />
  <path
    d="M102.221 120.196C102.278 120.196 102.814 121.263 103.075 121.797L104.035 122.508L105.209 122.081L105.458 121.797L105.209 120.853L104.656 121.156V121.15C104.656 120.761 104.656 120.394 104.996 120.196C105.337 119.996 105.138 119.828 104.996 119.769L105.458 119.271L105.209 118.097H104.569L104.32 118.524L104.035 118.737V119.769L103.498 120.765L103.075 119.271L102.932 118.097H102.648C102.565 118.488 102.363 119.314 102.221 119.484C102.043 119.697 102.15 120.196 102.221 120.196Z"
    fill="#51A159"
  />
  <path
    d="M107.059 124.465C107.144 124.664 107.355 124.927 107.45 125.033L108.004 125.198C108.3 124.688 109.108 125.346 109.25 125.033C109.393 124.72 109.49 123.575 109.371 123.646L108.894 123.488L109.371 122.757V122.081H108.766L108.162 122.97V121.797H107.237L107.45 122.508C107.379 122.71 107.237 123.163 107.237 123.362C107.237 123.611 106.952 124.215 107.059 124.465Z"
    fill="#51A159"
  />
  <path
    d="M114.992 122.97L115.632 124.215H117.588L118.086 123.646L118.335 122.508L117.41 122.757L117.837 122.081L118.335 121.334C118.347 121.144 118.364 120.701 118.335 120.445C118.307 120.189 117.991 119.887 117.837 119.769L116.912 120.445L116.308 122.294C116.308 122.294 115.786 122.081 115.632 122.081V121.156V119.947L114.814 119.769C114.565 119.994 114.095 120.509 114.209 120.765C114.351 121.085 114.778 122.294 114.814 122.508C114.842 122.679 114.944 122.887 114.992 122.97Z"
    fill="#51A159"
  />
</svg>
